<?xml version="1.0" encoding="UTF-8" standalone="no"?>
<svg xmlns="http://www.w3.org/2000/svg" version="1.1"
     width="209mm" height="125mm">
  <style>
    rect, circle {
        opacity: 1;
        fill: none;
        stroke: #000000;
        stroke-width: .1mm;
        stroke-linecap: round;
        stroke-linejoin: round;
        stroke-miterlimit: 4;
        stroke-dasharray: none;
        stroke-opacity: 1;
    }
  </style>
  <rect x="0mm" y="2mm" width="209mm" height="121mm"/>
  <circle cx="4.75mm" cy="119.25mm" r="3.5mm"/>
  <circle cx="4.75mm" cy="5.75mm" r="3.5mm"/>
  <circle cx="204.25mm" cy="119.25mm" r="3.5mm"/>
  <circle cx="204.25mm" cy="5.75mm" r="3.5mm"/>
  <circle cx="4.25mm" cy="111.25mm" r="2mm"/>
  <circle cx="4.25mm" cy="13.75mm" r="2mm"/>
  <circle cx="204.75mm" cy="111.25mm" r="2mm"/>
  <circle cx="204.75mm" cy="13.75mm" r="2mm"/>
  <rect x="182mm" y="9mm" width="14mm" height="14mm"/>
  <rect x="182mm" y="28mm" width="14mm" height="14mm"/>
  <rect x="182mm" y="47mm" width="14mm" height="14mm"/>
  <rect x="26mm" y="97mm" width="14mm" height="14mm"/>
  <rect x="26mm" y="32mm" width="14mm" height="14mm"/>
  <rect x="26mm" y="51mm" width="14mm" height="14mm"/>
  <rect x="26mm" y="9mm" width="14mm" height="14mm"/>
  <rect x="49mm" y="97mm" width="14mm" height="14mm"/>
  <rect x="68mm" y="97mm" width="14mm" height="14mm"/>
  <rect x="49mm" y="74mm" width="14mm" height="14mm"/>
  <rect x="68mm" y="74mm" width="14mm" height="14mm"/>
  <rect x="49mm" y="32mm" width="14mm" height="14mm"/>
  <rect x="68mm" y="51mm" width="14mm" height="14mm"/>
  <rect x="49mm" y="9mm" width="14mm" height="14mm"/>
  <rect x="68mm" y="9mm" width="14mm" height="14mm"/>
  <rect x="91mm" y="97mm" width="14mm" height="14mm"/>
  <rect x="91mm" y="74mm" width="14mm" height="14mm"/>
  <rect x="91mm" y="32mm" width="14mm" height="14mm"/>
  <rect x="91mm" y="51mm" width="14mm" height="14mm"/>
  <rect x="114mm" y="97mm" width="14mm" height="14mm"/>
  <rect x="182mm" y="97mm" width="14mm" height="14mm"/>
</svg>
