<?xml version="1.0" encoding="UTF-8" standalone="no"?>
<svg xmlns="http://www.w3.org/2000/svg" version="1.1"
     width="209mm" height="125mm">
  <style>
    rect, circle {
        opacity: 1;
        fill: none;
        stroke: #000000;
        stroke-width: .1mm;
        stroke-linecap: round;
        stroke-linejoin: round;
        stroke-miterlimit: 4;
        stroke-dasharray: none;
        stroke-opacity: 1;
    }
  </style>
  <rect x="0mm" y="2mm" width="209mm" height="121mm"/>
  <circle cx="4.75mm" cy="119.25mm" r="3.5mm"/>
  <circle cx="4.75mm" cy="5.75mm" r="3.5mm"/>
  <circle cx="204.25mm" cy="119.25mm" r="3.5mm"/>
  <circle cx="204.25mm" cy="5.75mm" r="3.5mm"/>
  <circle cx="4.25mm" cy="111.25mm" r="2mm"/>
  <circle cx="4.25mm" cy="13.75mm" r="2mm"/>
  <circle cx="204.75mm" cy="111.25mm" r="2mm"/>
  <circle cx="204.75mm" cy="13.75mm" r="2mm"/>
  <rect x="11.5mm" y="9.5mm" width="14mm" height="14mm"/>
  <rect x="11.5mm" y="32.5mm" width="14mm" height="14mm"/>
  <rect x="11.5mm" y="55.5mm" width="14mm" height="14mm"/>
  <rect x="11.5mm" y="78.5mm" width="14mm" height="14mm"/>
  <rect x="11.5mm" y="101.5mm" width="14mm" height="14mm"/>
  <rect x="73mm" y="21.5mm" width="14mm" height="14mm"/>
  <rect x="99mm" y="21.5mm" width="14mm" height="14mm"/>
  <rect x="125mm" y="21.5mm" width="14mm" height="14mm"/>
  <rect x="151mm" y="21.5mm" width="14mm" height="14mm"/>
  <rect x="177mm" y="21.5mm" width="14mm" height="14mm"/>
  <rect x="73mm" y="69.5mm" width="14mm" height="14mm"/>
  <rect x="96mm" y="69.5mm" width="14mm" height="14mm"/>
  <rect x="115mm" y="69.5mm" width="14mm" height="14mm"/>
  <rect x="157mm" y="69.5mm" width="14mm" height="14mm"/>
  <rect x="73mm" y="95.5mm" width="14mm" height="14mm"/>
  <rect x="96mm" y="95.5mm" width="14mm" height="14mm"/>
  <rect x="115mm" y="95.5mm" width="14mm" height="14mm"/>
  <rect x="157mm" y="95.5mm" width="14mm" height="14mm"/>
  <rect x="183.5mm" y="95.5mm" width="14mm" height="14mm"/>
</svg>
